<svg xmlns="http://www.w3.org/2000/svg" viewBox="0 0 64 64" role="img" aria-label="SkyBrandMX">
  <rect width="64" height="64" rx="14" fill="#0f1d2c"/>
  <g transform="translate(12 8) scale(1.7)">
    <g stroke="#70D1C6" stroke-width="1.5" stroke-linecap="round" stroke-linejoin="round" fill="none">
      <path d="M12 2L15 6V14C15 14 15 17 12 17C9 17 9 14 9 14V6L12 2Z"/>
    </g>
    <g fill="#70D1C6">
      <path d="M9 11L6 14H9V11Z"/>
      <path d="M15 11L18 14H15V11Z"/>
    </g>
    <path d="M9 17C10.5 20 12 22 12 22C12 22 13.5 20 15 17H9Z" fill="#ff6600"/>
    <path d="M10 17.5C11 19.5 12 21 12 21C12 21 13 19.5 14 17.5H10Z" fill="#ef6f6f"/>
  </g>
</svg>
